<mxfile host="app.diagrams.net" modified="2023-08-17T20:00:57.964Z" agent="Mozilla/5.0 (Windows NT 10.0; Win64; x64) AppleWebKit/537.36 (KHTML, like Gecko) Chrome/115.0.0.0 Safari/537.36" etag="8RHpCF_x23G_a3UUS8NF" version="21.6.3" type="device">
  <diagram id="C5RBs43oDa-KdzZeNtuy" name="Page-1">
    <mxGraphModel dx="794" dy="464" grid="1" gridSize="10" guides="1" tooltips="1" connect="1" arrows="1" fold="1" page="1" pageScale="1" pageWidth="827" pageHeight="1169" math="0" shadow="0">
      <root>
        <mxCell id="WIyWlLk6GJQsqaUBKTNV-0" />
        <mxCell id="WIyWlLk6GJQsqaUBKTNV-1" parent="WIyWlLk6GJQsqaUBKTNV-0" />
        <mxCell id="WIyWlLk6GJQsqaUBKTNV-2" value="" style="rounded=0;html=1;jettySize=auto;orthogonalLoop=1;fontSize=11;endArrow=block;endFill=0;endSize=8;strokeWidth=1;shadow=0;labelBackgroundColor=none;edgeStyle=orthogonalEdgeStyle;" parent="WIyWlLk6GJQsqaUBKTNV-1" source="WIyWlLk6GJQsqaUBKTNV-3" edge="1">
          <mxGeometry relative="1" as="geometry">
            <mxPoint x="220" y="170" as="targetPoint" />
          </mxGeometry>
        </mxCell>
        <mxCell id="WIyWlLk6GJQsqaUBKTNV-3" value="Start" style="rounded=1;whiteSpace=wrap;html=1;fontSize=12;glass=0;strokeWidth=1;shadow=0;" parent="WIyWlLk6GJQsqaUBKTNV-1" vertex="1">
          <mxGeometry x="160" y="80" width="120" height="40" as="geometry" />
        </mxCell>
        <mxCell id="_YHEuX3XCHLoAj_idzYY-0" value="Open&amp;nbsp; &quot;card Payment.xlsx&quot;" style="rounded=0;whiteSpace=wrap;html=1;" parent="WIyWlLk6GJQsqaUBKTNV-1" vertex="1">
          <mxGeometry x="157" y="168" width="120" height="60" as="geometry" />
        </mxCell>
        <mxCell id="_YHEuX3XCHLoAj_idzYY-1" value="" style="endArrow=none;dashed=1;html=1;rounded=0;" parent="WIyWlLk6GJQsqaUBKTNV-1" edge="1">
          <mxGeometry width="50" height="50" relative="1" as="geometry">
            <mxPoint x="160" y="234" as="sourcePoint" />
            <mxPoint x="280" y="234" as="targetPoint" />
            <Array as="points">
              <mxPoint x="230" y="234" />
              <mxPoint x="280" y="234" />
            </Array>
          </mxGeometry>
        </mxCell>
        <mxCell id="_YHEuX3XCHLoAj_idzYY-2" value="" style="endArrow=none;dashed=1;html=1;rounded=0;" parent="WIyWlLk6GJQsqaUBKTNV-1" edge="1">
          <mxGeometry width="50" height="50" relative="1" as="geometry">
            <mxPoint x="170" y="251" as="sourcePoint" />
            <mxPoint x="280" y="251" as="targetPoint" />
            <Array as="points">
              <mxPoint x="160" y="251" />
              <mxPoint x="180" y="251" />
              <mxPoint x="240" y="251" />
              <mxPoint x="280" y="251" />
            </Array>
          </mxGeometry>
        </mxCell>
        <mxCell id="_YHEuX3XCHLoAj_idzYY-4" value="" style="endArrow=none;dashed=1;html=1;dashPattern=1 3;strokeWidth=2;rounded=0;" parent="WIyWlLk6GJQsqaUBKTNV-1" edge="1">
          <mxGeometry width="50" height="50" relative="1" as="geometry">
            <mxPoint x="280" y="252" as="sourcePoint" />
            <mxPoint x="280" y="232" as="targetPoint" />
          </mxGeometry>
        </mxCell>
        <mxCell id="_YHEuX3XCHLoAj_idzYY-5" value="" style="endArrow=none;dashed=1;html=1;dashPattern=1 3;strokeWidth=2;rounded=0;" parent="WIyWlLk6GJQsqaUBKTNV-1" edge="1">
          <mxGeometry width="50" height="50" relative="1" as="geometry">
            <mxPoint x="160" y="252" as="sourcePoint" />
            <mxPoint x="160" y="232" as="targetPoint" />
          </mxGeometry>
        </mxCell>
        <mxCell id="_YHEuX3XCHLoAj_idzYY-26" value="Read the whole excel sheet and store it as a datatable" style="rounded=0;whiteSpace=wrap;html=1;" parent="WIyWlLk6GJQsqaUBKTNV-1" vertex="1">
          <mxGeometry x="159" y="290" width="120" height="60" as="geometry" />
        </mxCell>
        <mxCell id="_YHEuX3XCHLoAj_idzYY-27" value="" style="endArrow=none;dashed=1;html=1;rounded=0;" parent="WIyWlLk6GJQsqaUBKTNV-1" edge="1">
          <mxGeometry width="50" height="50" relative="1" as="geometry">
            <mxPoint x="159" y="354" as="sourcePoint" />
            <mxPoint x="279" y="354" as="targetPoint" />
            <Array as="points">
              <mxPoint x="229" y="354" />
              <mxPoint x="279" y="354" />
            </Array>
          </mxGeometry>
        </mxCell>
        <mxCell id="_YHEuX3XCHLoAj_idzYY-28" value="" style="endArrow=none;dashed=1;html=1;rounded=0;" parent="WIyWlLk6GJQsqaUBKTNV-1" edge="1">
          <mxGeometry width="50" height="50" relative="1" as="geometry">
            <mxPoint x="169" y="371" as="sourcePoint" />
            <mxPoint x="279" y="371" as="targetPoint" />
            <Array as="points">
              <mxPoint x="159" y="371" />
              <mxPoint x="179" y="371" />
              <mxPoint x="239" y="371" />
              <mxPoint x="279" y="371" />
            </Array>
          </mxGeometry>
        </mxCell>
        <mxCell id="_YHEuX3XCHLoAj_idzYY-29" value="" style="endArrow=none;dashed=1;html=1;dashPattern=1 3;strokeWidth=2;rounded=0;" parent="WIyWlLk6GJQsqaUBKTNV-1" edge="1">
          <mxGeometry width="50" height="50" relative="1" as="geometry">
            <mxPoint x="279" y="372" as="sourcePoint" />
            <mxPoint x="279" y="352" as="targetPoint" />
          </mxGeometry>
        </mxCell>
        <mxCell id="_YHEuX3XCHLoAj_idzYY-30" value="" style="endArrow=none;dashed=1;html=1;dashPattern=1 3;strokeWidth=2;rounded=0;" parent="WIyWlLk6GJQsqaUBKTNV-1" edge="1">
          <mxGeometry width="50" height="50" relative="1" as="geometry">
            <mxPoint x="159" y="372" as="sourcePoint" />
            <mxPoint x="159" y="352" as="targetPoint" />
          </mxGeometry>
        </mxCell>
        <mxCell id="_YHEuX3XCHLoAj_idzYY-31" value="Internal App" style="text;html=1;align=center;verticalAlign=middle;resizable=0;points=[];autosize=1;strokeColor=none;fillColor=none;" parent="WIyWlLk6GJQsqaUBKTNV-1" vertex="1">
          <mxGeometry x="156" y="228" width="90" height="30" as="geometry" />
        </mxCell>
        <mxCell id="_YHEuX3XCHLoAj_idzYY-32" value="Open&amp;nbsp; &quot;cash Payment.xlsx&quot;" style="rounded=0;whiteSpace=wrap;html=1;" parent="WIyWlLk6GJQsqaUBKTNV-1" vertex="1">
          <mxGeometry x="160" y="409" width="120" height="60" as="geometry" />
        </mxCell>
        <mxCell id="_YHEuX3XCHLoAj_idzYY-33" value="" style="endArrow=none;dashed=1;html=1;rounded=0;" parent="WIyWlLk6GJQsqaUBKTNV-1" edge="1">
          <mxGeometry width="50" height="50" relative="1" as="geometry">
            <mxPoint x="160" y="473" as="sourcePoint" />
            <mxPoint x="280" y="473" as="targetPoint" />
            <Array as="points">
              <mxPoint x="230" y="473" />
              <mxPoint x="280" y="473" />
            </Array>
          </mxGeometry>
        </mxCell>
        <mxCell id="_YHEuX3XCHLoAj_idzYY-34" value="" style="endArrow=none;dashed=1;html=1;rounded=0;" parent="WIyWlLk6GJQsqaUBKTNV-1" edge="1">
          <mxGeometry width="50" height="50" relative="1" as="geometry">
            <mxPoint x="170" y="490" as="sourcePoint" />
            <mxPoint x="280" y="490" as="targetPoint" />
            <Array as="points">
              <mxPoint x="160" y="490" />
              <mxPoint x="180" y="490" />
              <mxPoint x="240" y="490" />
              <mxPoint x="280" y="490" />
            </Array>
          </mxGeometry>
        </mxCell>
        <mxCell id="_YHEuX3XCHLoAj_idzYY-35" value="" style="endArrow=none;dashed=1;html=1;dashPattern=1 3;strokeWidth=2;rounded=0;" parent="WIyWlLk6GJQsqaUBKTNV-1" edge="1">
          <mxGeometry width="50" height="50" relative="1" as="geometry">
            <mxPoint x="280" y="491" as="sourcePoint" />
            <mxPoint x="280" y="471" as="targetPoint" />
          </mxGeometry>
        </mxCell>
        <mxCell id="_YHEuX3XCHLoAj_idzYY-36" value="" style="endArrow=none;dashed=1;html=1;dashPattern=1 3;strokeWidth=2;rounded=0;" parent="WIyWlLk6GJQsqaUBKTNV-1" edge="1">
          <mxGeometry width="50" height="50" relative="1" as="geometry">
            <mxPoint x="160" y="491" as="sourcePoint" />
            <mxPoint x="160" y="471" as="targetPoint" />
          </mxGeometry>
        </mxCell>
        <mxCell id="_YHEuX3XCHLoAj_idzYY-37" value="Read the whole excel sheet and store it as a datatable" style="rounded=0;whiteSpace=wrap;html=1;" parent="WIyWlLk6GJQsqaUBKTNV-1" vertex="1">
          <mxGeometry x="159" y="530" width="120" height="60" as="geometry" />
        </mxCell>
        <mxCell id="_YHEuX3XCHLoAj_idzYY-38" value="" style="endArrow=none;dashed=1;html=1;rounded=0;" parent="WIyWlLk6GJQsqaUBKTNV-1" edge="1">
          <mxGeometry width="50" height="50" relative="1" as="geometry">
            <mxPoint x="159" y="594" as="sourcePoint" />
            <mxPoint x="279" y="594" as="targetPoint" />
            <Array as="points">
              <mxPoint x="229" y="594" />
              <mxPoint x="279" y="594" />
            </Array>
          </mxGeometry>
        </mxCell>
        <mxCell id="_YHEuX3XCHLoAj_idzYY-39" value="" style="endArrow=none;dashed=1;html=1;rounded=0;" parent="WIyWlLk6GJQsqaUBKTNV-1" edge="1">
          <mxGeometry width="50" height="50" relative="1" as="geometry">
            <mxPoint x="169" y="611" as="sourcePoint" />
            <mxPoint x="279" y="611" as="targetPoint" />
            <Array as="points">
              <mxPoint x="159" y="611" />
              <mxPoint x="179" y="611" />
              <mxPoint x="239" y="611" />
              <mxPoint x="279" y="611" />
            </Array>
          </mxGeometry>
        </mxCell>
        <mxCell id="_YHEuX3XCHLoAj_idzYY-40" value="" style="endArrow=none;dashed=1;html=1;dashPattern=1 3;strokeWidth=2;rounded=0;" parent="WIyWlLk6GJQsqaUBKTNV-1" edge="1">
          <mxGeometry width="50" height="50" relative="1" as="geometry">
            <mxPoint x="279" y="612" as="sourcePoint" />
            <mxPoint x="279" y="592" as="targetPoint" />
          </mxGeometry>
        </mxCell>
        <mxCell id="_YHEuX3XCHLoAj_idzYY-41" value="" style="endArrow=none;dashed=1;html=1;dashPattern=1 3;strokeWidth=2;rounded=0;" parent="WIyWlLk6GJQsqaUBKTNV-1" edge="1">
          <mxGeometry width="50" height="50" relative="1" as="geometry">
            <mxPoint x="159" y="612" as="sourcePoint" />
            <mxPoint x="159" y="592" as="targetPoint" />
          </mxGeometry>
        </mxCell>
        <mxCell id="_YHEuX3XCHLoAj_idzYY-47" value="Internal App" style="text;whiteSpace=wrap;html=1;" parent="WIyWlLk6GJQsqaUBKTNV-1" vertex="1">
          <mxGeometry x="197" y="350" width="80" height="40" as="geometry" />
        </mxCell>
        <mxCell id="_YHEuX3XCHLoAj_idzYY-48" value="Internal App" style="text;whiteSpace=wrap;html=1;" parent="WIyWlLk6GJQsqaUBKTNV-1" vertex="1">
          <mxGeometry x="196" y="469" width="80" height="40" as="geometry" />
        </mxCell>
        <mxCell id="_YHEuX3XCHLoAj_idzYY-49" value="Internal App" style="text;whiteSpace=wrap;html=1;" parent="WIyWlLk6GJQsqaUBKTNV-1" vertex="1">
          <mxGeometry x="198" y="590" width="80" height="40" as="geometry" />
        </mxCell>
        <mxCell id="_YHEuX3XCHLoAj_idzYY-72" value="" style="rounded=0;html=1;jettySize=auto;orthogonalLoop=1;fontSize=11;endArrow=block;endFill=0;endSize=8;strokeWidth=1;shadow=0;labelBackgroundColor=none;edgeStyle=orthogonalEdgeStyle;" parent="WIyWlLk6GJQsqaUBKTNV-1" edge="1">
          <mxGeometry relative="1" as="geometry">
            <mxPoint x="222" y="250" as="sourcePoint" />
            <mxPoint x="222" y="292" as="targetPoint" />
          </mxGeometry>
        </mxCell>
        <mxCell id="_YHEuX3XCHLoAj_idzYY-73" value="" style="rounded=0;html=1;jettySize=auto;orthogonalLoop=1;fontSize=11;endArrow=block;endFill=0;endSize=8;strokeWidth=1;shadow=0;labelBackgroundColor=none;edgeStyle=orthogonalEdgeStyle;" parent="WIyWlLk6GJQsqaUBKTNV-1" edge="1">
          <mxGeometry relative="1" as="geometry">
            <mxPoint x="222" y="380" as="sourcePoint" />
            <mxPoint x="222" y="410" as="targetPoint" />
            <Array as="points">
              <mxPoint x="222" y="370" />
              <mxPoint x="222" y="370" />
            </Array>
          </mxGeometry>
        </mxCell>
        <mxCell id="_YHEuX3XCHLoAj_idzYY-77" value="" style="rounded=0;html=1;jettySize=auto;orthogonalLoop=1;fontSize=11;endArrow=block;endFill=0;endSize=8;strokeWidth=1;shadow=0;labelBackgroundColor=none;edgeStyle=orthogonalEdgeStyle;" parent="WIyWlLk6GJQsqaUBKTNV-1" edge="1">
          <mxGeometry relative="1" as="geometry">
            <mxPoint x="222" y="499" as="sourcePoint" />
            <mxPoint x="222" y="530" as="targetPoint" />
            <Array as="points">
              <mxPoint x="222" y="489" />
              <mxPoint x="222" y="489" />
            </Array>
          </mxGeometry>
        </mxCell>
        <mxCell id="_YHEuX3XCHLoAj_idzYY-79" value="" style="rounded=0;html=1;jettySize=auto;orthogonalLoop=1;fontSize=11;endArrow=block;endFill=0;endSize=8;strokeWidth=1;shadow=0;labelBackgroundColor=none;edgeStyle=orthogonalEdgeStyle;" parent="WIyWlLk6GJQsqaUBKTNV-1" edge="1">
          <mxGeometry relative="1" as="geometry">
            <mxPoint x="222" y="623" as="sourcePoint" />
            <mxPoint x="222" y="654" as="targetPoint" />
            <Array as="points">
              <mxPoint x="222" y="613" />
              <mxPoint x="222" y="613" />
            </Array>
          </mxGeometry>
        </mxCell>
        <mxCell id="zbdN66aRmhUv04qdOEFZ-3" value="For each row in cash DT Column headers are added&amp;nbsp;" style="rounded=0;whiteSpace=wrap;html=1;" parent="WIyWlLk6GJQsqaUBKTNV-1" vertex="1">
          <mxGeometry x="159" y="776" width="120" height="60" as="geometry" />
        </mxCell>
        <mxCell id="zbdN66aRmhUv04qdOEFZ-4" value="" style="endArrow=none;dashed=1;html=1;rounded=0;" parent="WIyWlLk6GJQsqaUBKTNV-1" edge="1">
          <mxGeometry width="50" height="50" relative="1" as="geometry">
            <mxPoint x="159" y="840" as="sourcePoint" />
            <mxPoint x="279" y="840" as="targetPoint" />
            <Array as="points">
              <mxPoint x="229" y="840" />
              <mxPoint x="279" y="840" />
            </Array>
          </mxGeometry>
        </mxCell>
        <mxCell id="zbdN66aRmhUv04qdOEFZ-5" value="" style="endArrow=none;dashed=1;html=1;rounded=0;" parent="WIyWlLk6GJQsqaUBKTNV-1" edge="1">
          <mxGeometry width="50" height="50" relative="1" as="geometry">
            <mxPoint x="169" y="857" as="sourcePoint" />
            <mxPoint x="279" y="857" as="targetPoint" />
            <Array as="points">
              <mxPoint x="159" y="857" />
              <mxPoint x="179" y="857" />
              <mxPoint x="239" y="857" />
              <mxPoint x="279" y="857" />
            </Array>
          </mxGeometry>
        </mxCell>
        <mxCell id="zbdN66aRmhUv04qdOEFZ-6" value="" style="endArrow=none;dashed=1;html=1;dashPattern=1 3;strokeWidth=2;rounded=0;" parent="WIyWlLk6GJQsqaUBKTNV-1" edge="1">
          <mxGeometry width="50" height="50" relative="1" as="geometry">
            <mxPoint x="279" y="858" as="sourcePoint" />
            <mxPoint x="279" y="838" as="targetPoint" />
          </mxGeometry>
        </mxCell>
        <mxCell id="zbdN66aRmhUv04qdOEFZ-7" value="" style="endArrow=none;dashed=1;html=1;dashPattern=1 3;strokeWidth=2;rounded=0;" parent="WIyWlLk6GJQsqaUBKTNV-1" edge="1">
          <mxGeometry width="50" height="50" relative="1" as="geometry">
            <mxPoint x="159" y="858" as="sourcePoint" />
            <mxPoint x="159" y="838" as="targetPoint" />
          </mxGeometry>
        </mxCell>
        <mxCell id="zbdN66aRmhUv04qdOEFZ-8" value="For each row in the card datatable initialize the variables" style="rounded=0;whiteSpace=wrap;html=1;" parent="WIyWlLk6GJQsqaUBKTNV-1" vertex="1">
          <mxGeometry x="160" y="654" width="120" height="60" as="geometry" />
        </mxCell>
        <mxCell id="zbdN66aRmhUv04qdOEFZ-9" value="" style="endArrow=none;dashed=1;html=1;rounded=0;" parent="WIyWlLk6GJQsqaUBKTNV-1" edge="1">
          <mxGeometry width="50" height="50" relative="1" as="geometry">
            <mxPoint x="160" y="718" as="sourcePoint" />
            <mxPoint x="280" y="718" as="targetPoint" />
            <Array as="points">
              <mxPoint x="230" y="718" />
              <mxPoint x="280" y="718" />
            </Array>
          </mxGeometry>
        </mxCell>
        <mxCell id="zbdN66aRmhUv04qdOEFZ-10" value="" style="endArrow=none;dashed=1;html=1;rounded=0;" parent="WIyWlLk6GJQsqaUBKTNV-1" edge="1">
          <mxGeometry width="50" height="50" relative="1" as="geometry">
            <mxPoint x="170" y="735" as="sourcePoint" />
            <mxPoint x="280" y="735" as="targetPoint" />
            <Array as="points">
              <mxPoint x="160" y="735" />
              <mxPoint x="180" y="735" />
              <mxPoint x="240" y="735" />
              <mxPoint x="280" y="735" />
            </Array>
          </mxGeometry>
        </mxCell>
        <mxCell id="zbdN66aRmhUv04qdOEFZ-11" value="" style="endArrow=none;dashed=1;html=1;dashPattern=1 3;strokeWidth=2;rounded=0;" parent="WIyWlLk6GJQsqaUBKTNV-1" edge="1">
          <mxGeometry width="50" height="50" relative="1" as="geometry">
            <mxPoint x="280" y="736" as="sourcePoint" />
            <mxPoint x="280" y="716" as="targetPoint" />
          </mxGeometry>
        </mxCell>
        <mxCell id="zbdN66aRmhUv04qdOEFZ-12" value="" style="endArrow=none;dashed=1;html=1;dashPattern=1 3;strokeWidth=2;rounded=0;" parent="WIyWlLk6GJQsqaUBKTNV-1" edge="1">
          <mxGeometry width="50" height="50" relative="1" as="geometry">
            <mxPoint x="160" y="736" as="sourcePoint" />
            <mxPoint x="160" y="716" as="targetPoint" />
          </mxGeometry>
        </mxCell>
        <mxCell id="zbdN66aRmhUv04qdOEFZ-13" value="" style="rounded=0;html=1;jettySize=auto;orthogonalLoop=1;fontSize=11;endArrow=block;endFill=0;endSize=8;strokeWidth=1;shadow=0;labelBackgroundColor=none;edgeStyle=orthogonalEdgeStyle;" parent="WIyWlLk6GJQsqaUBKTNV-1" edge="1">
          <mxGeometry relative="1" as="geometry">
            <mxPoint x="223" y="744" as="sourcePoint" />
            <mxPoint x="223" y="775" as="targetPoint" />
            <Array as="points">
              <mxPoint x="223" y="734" />
              <mxPoint x="223" y="734" />
            </Array>
          </mxGeometry>
        </mxCell>
        <mxCell id="zbdN66aRmhUv04qdOEFZ-14" value="Add data rows to the merged datatable" style="rounded=0;whiteSpace=wrap;html=1;" parent="WIyWlLk6GJQsqaUBKTNV-1" vertex="1">
          <mxGeometry x="160" y="898" width="120" height="60" as="geometry" />
        </mxCell>
        <mxCell id="zbdN66aRmhUv04qdOEFZ-15" value="" style="endArrow=none;dashed=1;html=1;rounded=0;" parent="WIyWlLk6GJQsqaUBKTNV-1" edge="1">
          <mxGeometry width="50" height="50" relative="1" as="geometry">
            <mxPoint x="160" y="962" as="sourcePoint" />
            <mxPoint x="280" y="962" as="targetPoint" />
            <Array as="points">
              <mxPoint x="230" y="962" />
              <mxPoint x="280" y="962" />
            </Array>
          </mxGeometry>
        </mxCell>
        <mxCell id="zbdN66aRmhUv04qdOEFZ-16" value="" style="endArrow=none;dashed=1;html=1;rounded=0;" parent="WIyWlLk6GJQsqaUBKTNV-1" edge="1">
          <mxGeometry width="50" height="50" relative="1" as="geometry">
            <mxPoint x="170" y="979" as="sourcePoint" />
            <mxPoint x="280" y="979" as="targetPoint" />
            <Array as="points">
              <mxPoint x="160" y="979" />
              <mxPoint x="180" y="979" />
              <mxPoint x="240" y="979" />
              <mxPoint x="280" y="979" />
            </Array>
          </mxGeometry>
        </mxCell>
        <mxCell id="zbdN66aRmhUv04qdOEFZ-17" value="" style="endArrow=none;dashed=1;html=1;dashPattern=1 3;strokeWidth=2;rounded=0;" parent="WIyWlLk6GJQsqaUBKTNV-1" edge="1">
          <mxGeometry width="50" height="50" relative="1" as="geometry">
            <mxPoint x="280" y="980" as="sourcePoint" />
            <mxPoint x="280" y="960" as="targetPoint" />
          </mxGeometry>
        </mxCell>
        <mxCell id="zbdN66aRmhUv04qdOEFZ-18" value="" style="endArrow=none;dashed=1;html=1;dashPattern=1 3;strokeWidth=2;rounded=0;" parent="WIyWlLk6GJQsqaUBKTNV-1" edge="1">
          <mxGeometry width="50" height="50" relative="1" as="geometry">
            <mxPoint x="160" y="980" as="sourcePoint" />
            <mxPoint x="160" y="960" as="targetPoint" />
          </mxGeometry>
        </mxCell>
        <mxCell id="zbdN66aRmhUv04qdOEFZ-19" value="" style="rounded=0;html=1;jettySize=auto;orthogonalLoop=1;fontSize=11;endArrow=block;endFill=0;endSize=8;strokeWidth=1;shadow=0;labelBackgroundColor=none;edgeStyle=orthogonalEdgeStyle;" parent="WIyWlLk6GJQsqaUBKTNV-1" edge="1">
          <mxGeometry relative="1" as="geometry">
            <mxPoint x="224" y="866" as="sourcePoint" />
            <mxPoint x="224" y="897" as="targetPoint" />
            <Array as="points">
              <mxPoint x="224" y="856" />
              <mxPoint x="224" y="856" />
            </Array>
          </mxGeometry>
        </mxCell>
        <mxCell id="zbdN66aRmhUv04qdOEFZ-20" value="" style="rounded=0;html=1;jettySize=auto;orthogonalLoop=1;fontSize=11;endArrow=block;endFill=0;endSize=8;strokeWidth=1;shadow=0;labelBackgroundColor=none;edgeStyle=orthogonalEdgeStyle;" parent="WIyWlLk6GJQsqaUBKTNV-1" edge="1">
          <mxGeometry relative="1" as="geometry">
            <mxPoint x="225" y="988" as="sourcePoint" />
            <mxPoint x="225" y="1019" as="targetPoint" />
            <Array as="points">
              <mxPoint x="225" y="978" />
              <mxPoint x="225" y="978" />
            </Array>
          </mxGeometry>
        </mxCell>
        <mxCell id="zbdN66aRmhUv04qdOEFZ-21" value="Assign a count to increment after every sum is calculated" style="rounded=0;whiteSpace=wrap;html=1;" parent="WIyWlLk6GJQsqaUBKTNV-1" vertex="1">
          <mxGeometry x="161" y="1021" width="120" height="60" as="geometry" />
        </mxCell>
        <mxCell id="zbdN66aRmhUv04qdOEFZ-22" value="" style="endArrow=none;dashed=1;html=1;rounded=0;" parent="WIyWlLk6GJQsqaUBKTNV-1" edge="1">
          <mxGeometry width="50" height="50" relative="1" as="geometry">
            <mxPoint x="161" y="1085" as="sourcePoint" />
            <mxPoint x="281" y="1085" as="targetPoint" />
            <Array as="points">
              <mxPoint x="231" y="1085" />
              <mxPoint x="281" y="1085" />
            </Array>
          </mxGeometry>
        </mxCell>
        <mxCell id="zbdN66aRmhUv04qdOEFZ-23" value="" style="endArrow=none;dashed=1;html=1;rounded=0;" parent="WIyWlLk6GJQsqaUBKTNV-1" edge="1">
          <mxGeometry width="50" height="50" relative="1" as="geometry">
            <mxPoint x="171" y="1102" as="sourcePoint" />
            <mxPoint x="281" y="1102" as="targetPoint" />
            <Array as="points">
              <mxPoint x="161" y="1102" />
              <mxPoint x="181" y="1102" />
              <mxPoint x="241" y="1102" />
              <mxPoint x="281" y="1102" />
            </Array>
          </mxGeometry>
        </mxCell>
        <mxCell id="zbdN66aRmhUv04qdOEFZ-24" value="" style="endArrow=none;dashed=1;html=1;dashPattern=1 3;strokeWidth=2;rounded=0;" parent="WIyWlLk6GJQsqaUBKTNV-1" edge="1">
          <mxGeometry width="50" height="50" relative="1" as="geometry">
            <mxPoint x="281" y="1103" as="sourcePoint" />
            <mxPoint x="281" y="1083" as="targetPoint" />
          </mxGeometry>
        </mxCell>
        <mxCell id="zbdN66aRmhUv04qdOEFZ-25" value="" style="endArrow=none;dashed=1;html=1;dashPattern=1 3;strokeWidth=2;rounded=0;" parent="WIyWlLk6GJQsqaUBKTNV-1" edge="1">
          <mxGeometry width="50" height="50" relative="1" as="geometry">
            <mxPoint x="161" y="1103" as="sourcePoint" />
            <mxPoint x="161" y="1083" as="targetPoint" />
          </mxGeometry>
        </mxCell>
        <mxCell id="zbdN66aRmhUv04qdOEFZ-26" value="Calculate the percentage of each item using given formula and range" style="rounded=0;whiteSpace=wrap;html=1;" parent="WIyWlLk6GJQsqaUBKTNV-1" vertex="1">
          <mxGeometry x="655" y="125" width="120" height="60" as="geometry" />
        </mxCell>
        <mxCell id="zbdN66aRmhUv04qdOEFZ-27" value="" style="endArrow=none;dashed=1;html=1;rounded=0;" parent="WIyWlLk6GJQsqaUBKTNV-1" edge="1">
          <mxGeometry width="50" height="50" relative="1" as="geometry">
            <mxPoint x="655" y="189" as="sourcePoint" />
            <mxPoint x="775" y="189" as="targetPoint" />
            <Array as="points">
              <mxPoint x="725" y="189" />
              <mxPoint x="775" y="189" />
            </Array>
          </mxGeometry>
        </mxCell>
        <mxCell id="zbdN66aRmhUv04qdOEFZ-28" value="" style="endArrow=none;dashed=1;html=1;rounded=0;" parent="WIyWlLk6GJQsqaUBKTNV-1" edge="1">
          <mxGeometry width="50" height="50" relative="1" as="geometry">
            <mxPoint x="665" y="206" as="sourcePoint" />
            <mxPoint x="775" y="206" as="targetPoint" />
            <Array as="points">
              <mxPoint x="655" y="206" />
              <mxPoint x="675" y="206" />
              <mxPoint x="735" y="206" />
              <mxPoint x="775" y="206" />
            </Array>
          </mxGeometry>
        </mxCell>
        <mxCell id="zbdN66aRmhUv04qdOEFZ-29" value="" style="endArrow=none;dashed=1;html=1;dashPattern=1 3;strokeWidth=2;rounded=0;" parent="WIyWlLk6GJQsqaUBKTNV-1" edge="1">
          <mxGeometry width="50" height="50" relative="1" as="geometry">
            <mxPoint x="775" y="207" as="sourcePoint" />
            <mxPoint x="775" y="187" as="targetPoint" />
          </mxGeometry>
        </mxCell>
        <mxCell id="zbdN66aRmhUv04qdOEFZ-30" value="" style="endArrow=none;dashed=1;html=1;dashPattern=1 3;strokeWidth=2;rounded=0;" parent="WIyWlLk6GJQsqaUBKTNV-1" edge="1">
          <mxGeometry width="50" height="50" relative="1" as="geometry">
            <mxPoint x="655" y="207" as="sourcePoint" />
            <mxPoint x="655" y="187" as="targetPoint" />
          </mxGeometry>
        </mxCell>
        <mxCell id="zbdN66aRmhUv04qdOEFZ-31" value="Populate the percentage value of each row in coulum D" style="rounded=0;whiteSpace=wrap;html=1;" parent="WIyWlLk6GJQsqaUBKTNV-1" vertex="1">
          <mxGeometry x="656" y="247" width="120" height="60" as="geometry" />
        </mxCell>
        <mxCell id="zbdN66aRmhUv04qdOEFZ-32" value="" style="endArrow=none;dashed=1;html=1;rounded=0;" parent="WIyWlLk6GJQsqaUBKTNV-1" edge="1">
          <mxGeometry width="50" height="50" relative="1" as="geometry">
            <mxPoint x="656" y="311" as="sourcePoint" />
            <mxPoint x="776" y="311" as="targetPoint" />
            <Array as="points">
              <mxPoint x="726" y="311" />
              <mxPoint x="776" y="311" />
            </Array>
          </mxGeometry>
        </mxCell>
        <mxCell id="zbdN66aRmhUv04qdOEFZ-33" value="" style="endArrow=none;dashed=1;html=1;rounded=0;" parent="WIyWlLk6GJQsqaUBKTNV-1" edge="1">
          <mxGeometry width="50" height="50" relative="1" as="geometry">
            <mxPoint x="666" y="328" as="sourcePoint" />
            <mxPoint x="776" y="328" as="targetPoint" />
            <Array as="points">
              <mxPoint x="656" y="328" />
              <mxPoint x="676" y="328" />
              <mxPoint x="736" y="328" />
              <mxPoint x="776" y="328" />
            </Array>
          </mxGeometry>
        </mxCell>
        <mxCell id="zbdN66aRmhUv04qdOEFZ-34" value="" style="endArrow=none;dashed=1;html=1;dashPattern=1 3;strokeWidth=2;rounded=0;" parent="WIyWlLk6GJQsqaUBKTNV-1" edge="1">
          <mxGeometry width="50" height="50" relative="1" as="geometry">
            <mxPoint x="776" y="329" as="sourcePoint" />
            <mxPoint x="776" y="309" as="targetPoint" />
          </mxGeometry>
        </mxCell>
        <mxCell id="zbdN66aRmhUv04qdOEFZ-35" value="" style="endArrow=none;dashed=1;html=1;dashPattern=1 3;strokeWidth=2;rounded=0;" parent="WIyWlLk6GJQsqaUBKTNV-1" edge="1">
          <mxGeometry width="50" height="50" relative="1" as="geometry">
            <mxPoint x="656" y="329" as="sourcePoint" />
            <mxPoint x="656" y="309" as="targetPoint" />
          </mxGeometry>
        </mxCell>
        <mxCell id="zbdN66aRmhUv04qdOEFZ-36" value="" style="rounded=0;html=1;jettySize=auto;orthogonalLoop=1;fontSize=11;endArrow=block;endFill=0;endSize=8;strokeWidth=1;shadow=0;labelBackgroundColor=none;edgeStyle=orthogonalEdgeStyle;" parent="WIyWlLk6GJQsqaUBKTNV-1" edge="1">
          <mxGeometry relative="1" as="geometry">
            <mxPoint x="720" y="215" as="sourcePoint" />
            <mxPoint x="720" y="246" as="targetPoint" />
            <Array as="points">
              <mxPoint x="720" y="205" />
              <mxPoint x="720" y="205" />
            </Array>
          </mxGeometry>
        </mxCell>
        <mxCell id="zbdN66aRmhUv04qdOEFZ-37" value="" style="rounded=0;html=1;jettySize=auto;orthogonalLoop=1;fontSize=11;endArrow=block;endFill=0;endSize=8;strokeWidth=1;shadow=0;labelBackgroundColor=none;edgeStyle=orthogonalEdgeStyle;" parent="WIyWlLk6GJQsqaUBKTNV-1" edge="1">
          <mxGeometry relative="1" as="geometry">
            <mxPoint x="721" y="337" as="sourcePoint" />
            <mxPoint x="721" y="368" as="targetPoint" />
            <Array as="points">
              <mxPoint x="721" y="327" />
              <mxPoint x="721" y="327" />
            </Array>
          </mxGeometry>
        </mxCell>
        <mxCell id="zbdN66aRmhUv04qdOEFZ-43" value="" style="endArrow=classic;html=1;rounded=0;" parent="WIyWlLk6GJQsqaUBKTNV-1" edge="1">
          <mxGeometry width="50" height="50" relative="1" as="geometry">
            <mxPoint x="340" y="1140" as="sourcePoint" />
            <mxPoint x="470" y="120" as="targetPoint" />
            <Array as="points">
              <mxPoint x="340" y="90" />
              <mxPoint x="470" y="90" />
            </Array>
          </mxGeometry>
        </mxCell>
        <mxCell id="zbdN66aRmhUv04qdOEFZ-45" value="" style="endArrow=none;html=1;rounded=0;" parent="WIyWlLk6GJQsqaUBKTNV-1" edge="1">
          <mxGeometry width="50" height="50" relative="1" as="geometry">
            <mxPoint x="230" y="1100" as="sourcePoint" />
            <mxPoint x="340" y="1140" as="targetPoint" />
            <Array as="points">
              <mxPoint x="230" y="1140" />
            </Array>
          </mxGeometry>
        </mxCell>
        <mxCell id="zbdN66aRmhUv04qdOEFZ-46" value="End" style="rounded=1;whiteSpace=wrap;html=1;fontSize=12;glass=0;strokeWidth=1;shadow=0;arcSize=45;" parent="WIyWlLk6GJQsqaUBKTNV-1" vertex="1">
          <mxGeometry x="655" y="369" width="120" height="40" as="geometry" />
        </mxCell>
        <mxCell id="zbdN66aRmhUv04qdOEFZ-48" value="Internal App" style="text;whiteSpace=wrap;html=1;" parent="WIyWlLk6GJQsqaUBKTNV-1" vertex="1">
          <mxGeometry x="665" y="183" width="100" height="40" as="geometry" />
        </mxCell>
        <mxCell id="zbdN66aRmhUv04qdOEFZ-49" value="Internal App" style="text;whiteSpace=wrap;html=1;" parent="WIyWlLk6GJQsqaUBKTNV-1" vertex="1">
          <mxGeometry x="674" y="306" width="100" height="40" as="geometry" />
        </mxCell>
        <mxCell id="zbdN66aRmhUv04qdOEFZ-50" value="Internal App" style="text;whiteSpace=wrap;html=1;" parent="WIyWlLk6GJQsqaUBKTNV-1" vertex="1">
          <mxGeometry x="190" y="713" width="100" height="40" as="geometry" />
        </mxCell>
        <mxCell id="zbdN66aRmhUv04qdOEFZ-51" value="Internal App" style="text;whiteSpace=wrap;html=1;" parent="WIyWlLk6GJQsqaUBKTNV-1" vertex="1">
          <mxGeometry x="190" y="837" width="100" height="40" as="geometry" />
        </mxCell>
        <mxCell id="zbdN66aRmhUv04qdOEFZ-52" value="Internal App" style="text;whiteSpace=wrap;html=1;" parent="WIyWlLk6GJQsqaUBKTNV-1" vertex="1">
          <mxGeometry x="194" y="957" width="100" height="40" as="geometry" />
        </mxCell>
        <mxCell id="zbdN66aRmhUv04qdOEFZ-54" value="Internal App" style="text;whiteSpace=wrap;html=1;" parent="WIyWlLk6GJQsqaUBKTNV-1" vertex="1">
          <mxGeometry x="192" y="1080" width="100" height="40" as="geometry" />
        </mxCell>
        <mxCell id="648J-5t0cohJ9zHrmOAv-0" value="For each row in card DT Column headers are added&amp;nbsp;" style="rounded=0;whiteSpace=wrap;html=1;" vertex="1" parent="WIyWlLk6GJQsqaUBKTNV-1">
          <mxGeometry x="409" y="244" width="120" height="60" as="geometry" />
        </mxCell>
        <mxCell id="648J-5t0cohJ9zHrmOAv-1" value="" style="endArrow=none;dashed=1;html=1;rounded=0;" edge="1" parent="WIyWlLk6GJQsqaUBKTNV-1">
          <mxGeometry width="50" height="50" relative="1" as="geometry">
            <mxPoint x="409" y="308" as="sourcePoint" />
            <mxPoint x="529" y="308" as="targetPoint" />
            <Array as="points">
              <mxPoint x="479" y="308" />
              <mxPoint x="529" y="308" />
            </Array>
          </mxGeometry>
        </mxCell>
        <mxCell id="648J-5t0cohJ9zHrmOAv-2" value="" style="endArrow=none;dashed=1;html=1;rounded=0;" edge="1" parent="WIyWlLk6GJQsqaUBKTNV-1">
          <mxGeometry width="50" height="50" relative="1" as="geometry">
            <mxPoint x="419" y="325" as="sourcePoint" />
            <mxPoint x="529" y="325" as="targetPoint" />
            <Array as="points">
              <mxPoint x="409" y="325" />
              <mxPoint x="429" y="325" />
              <mxPoint x="489" y="325" />
              <mxPoint x="529" y="325" />
            </Array>
          </mxGeometry>
        </mxCell>
        <mxCell id="648J-5t0cohJ9zHrmOAv-3" value="" style="endArrow=none;dashed=1;html=1;dashPattern=1 3;strokeWidth=2;rounded=0;" edge="1" parent="WIyWlLk6GJQsqaUBKTNV-1">
          <mxGeometry width="50" height="50" relative="1" as="geometry">
            <mxPoint x="529" y="326" as="sourcePoint" />
            <mxPoint x="529" y="306" as="targetPoint" />
          </mxGeometry>
        </mxCell>
        <mxCell id="648J-5t0cohJ9zHrmOAv-4" value="" style="endArrow=none;dashed=1;html=1;dashPattern=1 3;strokeWidth=2;rounded=0;" edge="1" parent="WIyWlLk6GJQsqaUBKTNV-1">
          <mxGeometry width="50" height="50" relative="1" as="geometry">
            <mxPoint x="409" y="326" as="sourcePoint" />
            <mxPoint x="409" y="306" as="targetPoint" />
          </mxGeometry>
        </mxCell>
        <mxCell id="648J-5t0cohJ9zHrmOAv-5" value="For each row in the cash datatable initialize the variables" style="rounded=0;whiteSpace=wrap;html=1;" vertex="1" parent="WIyWlLk6GJQsqaUBKTNV-1">
          <mxGeometry x="410" y="122" width="120" height="60" as="geometry" />
        </mxCell>
        <mxCell id="648J-5t0cohJ9zHrmOAv-6" value="" style="endArrow=none;dashed=1;html=1;rounded=0;" edge="1" parent="WIyWlLk6GJQsqaUBKTNV-1">
          <mxGeometry width="50" height="50" relative="1" as="geometry">
            <mxPoint x="410" y="186" as="sourcePoint" />
            <mxPoint x="530" y="186" as="targetPoint" />
            <Array as="points">
              <mxPoint x="480" y="186" />
              <mxPoint x="530" y="186" />
            </Array>
          </mxGeometry>
        </mxCell>
        <mxCell id="648J-5t0cohJ9zHrmOAv-7" value="" style="endArrow=none;dashed=1;html=1;rounded=0;" edge="1" parent="WIyWlLk6GJQsqaUBKTNV-1">
          <mxGeometry width="50" height="50" relative="1" as="geometry">
            <mxPoint x="420" y="203" as="sourcePoint" />
            <mxPoint x="530" y="203" as="targetPoint" />
            <Array as="points">
              <mxPoint x="410" y="203" />
              <mxPoint x="430" y="203" />
              <mxPoint x="490" y="203" />
              <mxPoint x="530" y="203" />
            </Array>
          </mxGeometry>
        </mxCell>
        <mxCell id="648J-5t0cohJ9zHrmOAv-8" value="" style="endArrow=none;dashed=1;html=1;dashPattern=1 3;strokeWidth=2;rounded=0;" edge="1" parent="WIyWlLk6GJQsqaUBKTNV-1">
          <mxGeometry width="50" height="50" relative="1" as="geometry">
            <mxPoint x="530" y="204" as="sourcePoint" />
            <mxPoint x="530" y="184" as="targetPoint" />
          </mxGeometry>
        </mxCell>
        <mxCell id="648J-5t0cohJ9zHrmOAv-9" value="" style="endArrow=none;dashed=1;html=1;dashPattern=1 3;strokeWidth=2;rounded=0;" edge="1" parent="WIyWlLk6GJQsqaUBKTNV-1">
          <mxGeometry width="50" height="50" relative="1" as="geometry">
            <mxPoint x="410" y="204" as="sourcePoint" />
            <mxPoint x="410" y="184" as="targetPoint" />
          </mxGeometry>
        </mxCell>
        <mxCell id="648J-5t0cohJ9zHrmOAv-10" value="" style="rounded=0;html=1;jettySize=auto;orthogonalLoop=1;fontSize=11;endArrow=block;endFill=0;endSize=8;strokeWidth=1;shadow=0;labelBackgroundColor=none;edgeStyle=orthogonalEdgeStyle;" edge="1" parent="WIyWlLk6GJQsqaUBKTNV-1">
          <mxGeometry relative="1" as="geometry">
            <mxPoint x="473" y="212" as="sourcePoint" />
            <mxPoint x="473" y="243" as="targetPoint" />
            <Array as="points">
              <mxPoint x="473" y="202" />
              <mxPoint x="473" y="202" />
            </Array>
          </mxGeometry>
        </mxCell>
        <mxCell id="648J-5t0cohJ9zHrmOAv-11" value="Add data rows to the merged datatable" style="rounded=0;whiteSpace=wrap;html=1;" vertex="1" parent="WIyWlLk6GJQsqaUBKTNV-1">
          <mxGeometry x="410" y="366" width="120" height="60" as="geometry" />
        </mxCell>
        <mxCell id="648J-5t0cohJ9zHrmOAv-12" value="" style="endArrow=none;dashed=1;html=1;rounded=0;" edge="1" parent="WIyWlLk6GJQsqaUBKTNV-1">
          <mxGeometry width="50" height="50" relative="1" as="geometry">
            <mxPoint x="410" y="430" as="sourcePoint" />
            <mxPoint x="530" y="430" as="targetPoint" />
            <Array as="points">
              <mxPoint x="480" y="430" />
              <mxPoint x="530" y="430" />
            </Array>
          </mxGeometry>
        </mxCell>
        <mxCell id="648J-5t0cohJ9zHrmOAv-13" value="" style="endArrow=none;dashed=1;html=1;rounded=0;" edge="1" parent="WIyWlLk6GJQsqaUBKTNV-1">
          <mxGeometry width="50" height="50" relative="1" as="geometry">
            <mxPoint x="420" y="447" as="sourcePoint" />
            <mxPoint x="530" y="447" as="targetPoint" />
            <Array as="points">
              <mxPoint x="410" y="447" />
              <mxPoint x="430" y="447" />
              <mxPoint x="490" y="447" />
              <mxPoint x="530" y="447" />
            </Array>
          </mxGeometry>
        </mxCell>
        <mxCell id="648J-5t0cohJ9zHrmOAv-14" value="" style="endArrow=none;dashed=1;html=1;dashPattern=1 3;strokeWidth=2;rounded=0;" edge="1" parent="WIyWlLk6GJQsqaUBKTNV-1">
          <mxGeometry width="50" height="50" relative="1" as="geometry">
            <mxPoint x="530" y="448" as="sourcePoint" />
            <mxPoint x="530" y="428" as="targetPoint" />
          </mxGeometry>
        </mxCell>
        <mxCell id="648J-5t0cohJ9zHrmOAv-15" value="" style="endArrow=none;dashed=1;html=1;dashPattern=1 3;strokeWidth=2;rounded=0;" edge="1" parent="WIyWlLk6GJQsqaUBKTNV-1">
          <mxGeometry width="50" height="50" relative="1" as="geometry">
            <mxPoint x="410" y="448" as="sourcePoint" />
            <mxPoint x="410" y="428" as="targetPoint" />
          </mxGeometry>
        </mxCell>
        <mxCell id="648J-5t0cohJ9zHrmOAv-16" value="" style="rounded=0;html=1;jettySize=auto;orthogonalLoop=1;fontSize=11;endArrow=block;endFill=0;endSize=8;strokeWidth=1;shadow=0;labelBackgroundColor=none;edgeStyle=orthogonalEdgeStyle;" edge="1" parent="WIyWlLk6GJQsqaUBKTNV-1">
          <mxGeometry relative="1" as="geometry">
            <mxPoint x="474" y="334" as="sourcePoint" />
            <mxPoint x="474" y="365" as="targetPoint" />
            <Array as="points">
              <mxPoint x="474" y="324" />
              <mxPoint x="474" y="324" />
            </Array>
          </mxGeometry>
        </mxCell>
        <mxCell id="648J-5t0cohJ9zHrmOAv-17" value="Internal App" style="text;whiteSpace=wrap;html=1;" vertex="1" parent="WIyWlLk6GJQsqaUBKTNV-1">
          <mxGeometry x="440" y="181" width="100" height="40" as="geometry" />
        </mxCell>
        <mxCell id="648J-5t0cohJ9zHrmOAv-18" value="Internal App" style="text;whiteSpace=wrap;html=1;" vertex="1" parent="WIyWlLk6GJQsqaUBKTNV-1">
          <mxGeometry x="440" y="305" width="100" height="40" as="geometry" />
        </mxCell>
        <mxCell id="648J-5t0cohJ9zHrmOAv-19" value="Internal App" style="text;whiteSpace=wrap;html=1;" vertex="1" parent="WIyWlLk6GJQsqaUBKTNV-1">
          <mxGeometry x="444" y="425" width="100" height="40" as="geometry" />
        </mxCell>
        <mxCell id="648J-5t0cohJ9zHrmOAv-20" value="Open&amp;nbsp; &quot;Final.xlsx&quot;" style="rounded=0;whiteSpace=wrap;html=1;" vertex="1" parent="WIyWlLk6GJQsqaUBKTNV-1">
          <mxGeometry x="408" y="612" width="120" height="60" as="geometry" />
        </mxCell>
        <mxCell id="648J-5t0cohJ9zHrmOAv-21" value="" style="endArrow=none;dashed=1;html=1;rounded=0;" edge="1" parent="WIyWlLk6GJQsqaUBKTNV-1">
          <mxGeometry width="50" height="50" relative="1" as="geometry">
            <mxPoint x="408" y="676" as="sourcePoint" />
            <mxPoint x="528" y="676" as="targetPoint" />
            <Array as="points">
              <mxPoint x="478" y="676" />
              <mxPoint x="528" y="676" />
            </Array>
          </mxGeometry>
        </mxCell>
        <mxCell id="648J-5t0cohJ9zHrmOAv-22" value="" style="endArrow=none;dashed=1;html=1;rounded=0;" edge="1" parent="WIyWlLk6GJQsqaUBKTNV-1">
          <mxGeometry width="50" height="50" relative="1" as="geometry">
            <mxPoint x="418" y="693" as="sourcePoint" />
            <mxPoint x="528" y="693" as="targetPoint" />
            <Array as="points">
              <mxPoint x="408" y="693" />
              <mxPoint x="428" y="693" />
              <mxPoint x="488" y="693" />
              <mxPoint x="528" y="693" />
            </Array>
          </mxGeometry>
        </mxCell>
        <mxCell id="648J-5t0cohJ9zHrmOAv-23" value="" style="endArrow=none;dashed=1;html=1;dashPattern=1 3;strokeWidth=2;rounded=0;" edge="1" parent="WIyWlLk6GJQsqaUBKTNV-1">
          <mxGeometry width="50" height="50" relative="1" as="geometry">
            <mxPoint x="528" y="694" as="sourcePoint" />
            <mxPoint x="528" y="674" as="targetPoint" />
          </mxGeometry>
        </mxCell>
        <mxCell id="648J-5t0cohJ9zHrmOAv-24" value="" style="endArrow=none;dashed=1;html=1;dashPattern=1 3;strokeWidth=2;rounded=0;" edge="1" parent="WIyWlLk6GJQsqaUBKTNV-1">
          <mxGeometry width="50" height="50" relative="1" as="geometry">
            <mxPoint x="408" y="694" as="sourcePoint" />
            <mxPoint x="408" y="674" as="targetPoint" />
          </mxGeometry>
        </mxCell>
        <mxCell id="648J-5t0cohJ9zHrmOAv-25" value="Assign a count to perform computations to each row" style="rounded=0;whiteSpace=wrap;html=1;" vertex="1" parent="WIyWlLk6GJQsqaUBKTNV-1">
          <mxGeometry x="409" y="490" width="120" height="60" as="geometry" />
        </mxCell>
        <mxCell id="648J-5t0cohJ9zHrmOAv-26" value="" style="endArrow=none;dashed=1;html=1;rounded=0;" edge="1" parent="WIyWlLk6GJQsqaUBKTNV-1">
          <mxGeometry width="50" height="50" relative="1" as="geometry">
            <mxPoint x="409" y="554" as="sourcePoint" />
            <mxPoint x="529" y="554" as="targetPoint" />
            <Array as="points">
              <mxPoint x="479" y="554" />
              <mxPoint x="529" y="554" />
            </Array>
          </mxGeometry>
        </mxCell>
        <mxCell id="648J-5t0cohJ9zHrmOAv-27" value="" style="endArrow=none;dashed=1;html=1;rounded=0;" edge="1" parent="WIyWlLk6GJQsqaUBKTNV-1">
          <mxGeometry width="50" height="50" relative="1" as="geometry">
            <mxPoint x="419" y="571" as="sourcePoint" />
            <mxPoint x="529" y="571" as="targetPoint" />
            <Array as="points">
              <mxPoint x="409" y="571" />
              <mxPoint x="429" y="571" />
              <mxPoint x="489" y="571" />
              <mxPoint x="529" y="571" />
            </Array>
          </mxGeometry>
        </mxCell>
        <mxCell id="648J-5t0cohJ9zHrmOAv-28" value="" style="endArrow=none;dashed=1;html=1;dashPattern=1 3;strokeWidth=2;rounded=0;" edge="1" parent="WIyWlLk6GJQsqaUBKTNV-1">
          <mxGeometry width="50" height="50" relative="1" as="geometry">
            <mxPoint x="529" y="572" as="sourcePoint" />
            <mxPoint x="529" y="552" as="targetPoint" />
          </mxGeometry>
        </mxCell>
        <mxCell id="648J-5t0cohJ9zHrmOAv-29" value="" style="endArrow=none;dashed=1;html=1;dashPattern=1 3;strokeWidth=2;rounded=0;" edge="1" parent="WIyWlLk6GJQsqaUBKTNV-1">
          <mxGeometry width="50" height="50" relative="1" as="geometry">
            <mxPoint x="409" y="572" as="sourcePoint" />
            <mxPoint x="409" y="552" as="targetPoint" />
          </mxGeometry>
        </mxCell>
        <mxCell id="648J-5t0cohJ9zHrmOAv-30" value="" style="rounded=0;html=1;jettySize=auto;orthogonalLoop=1;fontSize=11;endArrow=block;endFill=0;endSize=8;strokeWidth=1;shadow=0;labelBackgroundColor=none;edgeStyle=orthogonalEdgeStyle;" edge="1" parent="WIyWlLk6GJQsqaUBKTNV-1">
          <mxGeometry relative="1" as="geometry">
            <mxPoint x="472" y="580" as="sourcePoint" />
            <mxPoint x="472" y="611" as="targetPoint" />
            <Array as="points">
              <mxPoint x="472" y="570" />
              <mxPoint x="472" y="570" />
            </Array>
          </mxGeometry>
        </mxCell>
        <mxCell id="648J-5t0cohJ9zHrmOAv-31" value="Write data from the datatable to a&amp;nbsp; final spreadsheet" style="rounded=0;whiteSpace=wrap;html=1;" vertex="1" parent="WIyWlLk6GJQsqaUBKTNV-1">
          <mxGeometry x="409" y="734" width="120" height="60" as="geometry" />
        </mxCell>
        <mxCell id="648J-5t0cohJ9zHrmOAv-32" value="" style="endArrow=none;dashed=1;html=1;rounded=0;" edge="1" parent="WIyWlLk6GJQsqaUBKTNV-1">
          <mxGeometry width="50" height="50" relative="1" as="geometry">
            <mxPoint x="409" y="798" as="sourcePoint" />
            <mxPoint x="529" y="798" as="targetPoint" />
            <Array as="points">
              <mxPoint x="479" y="798" />
              <mxPoint x="529" y="798" />
            </Array>
          </mxGeometry>
        </mxCell>
        <mxCell id="648J-5t0cohJ9zHrmOAv-33" value="" style="endArrow=none;dashed=1;html=1;rounded=0;" edge="1" parent="WIyWlLk6GJQsqaUBKTNV-1">
          <mxGeometry width="50" height="50" relative="1" as="geometry">
            <mxPoint x="419" y="815" as="sourcePoint" />
            <mxPoint x="529" y="815" as="targetPoint" />
            <Array as="points">
              <mxPoint x="409" y="815" />
              <mxPoint x="429" y="815" />
              <mxPoint x="489" y="815" />
              <mxPoint x="529" y="815" />
            </Array>
          </mxGeometry>
        </mxCell>
        <mxCell id="648J-5t0cohJ9zHrmOAv-34" value="" style="endArrow=none;dashed=1;html=1;dashPattern=1 3;strokeWidth=2;rounded=0;" edge="1" parent="WIyWlLk6GJQsqaUBKTNV-1">
          <mxGeometry width="50" height="50" relative="1" as="geometry">
            <mxPoint x="529" y="816" as="sourcePoint" />
            <mxPoint x="529" y="796" as="targetPoint" />
          </mxGeometry>
        </mxCell>
        <mxCell id="648J-5t0cohJ9zHrmOAv-35" value="" style="endArrow=none;dashed=1;html=1;dashPattern=1 3;strokeWidth=2;rounded=0;" edge="1" parent="WIyWlLk6GJQsqaUBKTNV-1">
          <mxGeometry width="50" height="50" relative="1" as="geometry">
            <mxPoint x="409" y="816" as="sourcePoint" />
            <mxPoint x="409" y="796" as="targetPoint" />
          </mxGeometry>
        </mxCell>
        <mxCell id="648J-5t0cohJ9zHrmOAv-36" value="" style="rounded=0;html=1;jettySize=auto;orthogonalLoop=1;fontSize=11;endArrow=block;endFill=0;endSize=8;strokeWidth=1;shadow=0;labelBackgroundColor=none;edgeStyle=orthogonalEdgeStyle;" edge="1" parent="WIyWlLk6GJQsqaUBKTNV-1">
          <mxGeometry relative="1" as="geometry">
            <mxPoint x="473" y="702" as="sourcePoint" />
            <mxPoint x="473" y="733" as="targetPoint" />
            <Array as="points">
              <mxPoint x="473" y="692" />
              <mxPoint x="473" y="692" />
            </Array>
          </mxGeometry>
        </mxCell>
        <mxCell id="648J-5t0cohJ9zHrmOAv-37" value="Internal App" style="text;whiteSpace=wrap;html=1;" vertex="1" parent="WIyWlLk6GJQsqaUBKTNV-1">
          <mxGeometry x="439" y="549" width="100" height="40" as="geometry" />
        </mxCell>
        <mxCell id="648J-5t0cohJ9zHrmOAv-38" value="Internal App" style="text;whiteSpace=wrap;html=1;" vertex="1" parent="WIyWlLk6GJQsqaUBKTNV-1">
          <mxGeometry x="439" y="673" width="100" height="40" as="geometry" />
        </mxCell>
        <mxCell id="648J-5t0cohJ9zHrmOAv-39" value="Internal App" style="text;whiteSpace=wrap;html=1;" vertex="1" parent="WIyWlLk6GJQsqaUBKTNV-1">
          <mxGeometry x="443" y="793" width="100" height="40" as="geometry" />
        </mxCell>
        <mxCell id="648J-5t0cohJ9zHrmOAv-41" value="Calculate the sum of column C using&amp;nbsp; the given formula and range" style="rounded=0;whiteSpace=wrap;html=1;" vertex="1" parent="WIyWlLk6GJQsqaUBKTNV-1">
          <mxGeometry x="409" y="850" width="120" height="60" as="geometry" />
        </mxCell>
        <mxCell id="648J-5t0cohJ9zHrmOAv-42" value="" style="endArrow=none;dashed=1;html=1;rounded=0;" edge="1" parent="WIyWlLk6GJQsqaUBKTNV-1">
          <mxGeometry width="50" height="50" relative="1" as="geometry">
            <mxPoint x="409" y="914" as="sourcePoint" />
            <mxPoint x="529" y="914" as="targetPoint" />
            <Array as="points">
              <mxPoint x="479" y="914" />
              <mxPoint x="529" y="914" />
            </Array>
          </mxGeometry>
        </mxCell>
        <mxCell id="648J-5t0cohJ9zHrmOAv-43" value="" style="endArrow=none;dashed=1;html=1;rounded=0;" edge="1" parent="WIyWlLk6GJQsqaUBKTNV-1">
          <mxGeometry width="50" height="50" relative="1" as="geometry">
            <mxPoint x="419" y="931" as="sourcePoint" />
            <mxPoint x="529" y="931" as="targetPoint" />
            <Array as="points">
              <mxPoint x="409" y="931" />
              <mxPoint x="429" y="931" />
              <mxPoint x="489" y="931" />
              <mxPoint x="529" y="931" />
            </Array>
          </mxGeometry>
        </mxCell>
        <mxCell id="648J-5t0cohJ9zHrmOAv-44" value="" style="endArrow=none;dashed=1;html=1;dashPattern=1 3;strokeWidth=2;rounded=0;" edge="1" parent="WIyWlLk6GJQsqaUBKTNV-1">
          <mxGeometry width="50" height="50" relative="1" as="geometry">
            <mxPoint x="529" y="932" as="sourcePoint" />
            <mxPoint x="529" y="912" as="targetPoint" />
          </mxGeometry>
        </mxCell>
        <mxCell id="648J-5t0cohJ9zHrmOAv-45" value="" style="endArrow=none;dashed=1;html=1;dashPattern=1 3;strokeWidth=2;rounded=0;" edge="1" parent="WIyWlLk6GJQsqaUBKTNV-1">
          <mxGeometry width="50" height="50" relative="1" as="geometry">
            <mxPoint x="409" y="932" as="sourcePoint" />
            <mxPoint x="409" y="912" as="targetPoint" />
          </mxGeometry>
        </mxCell>
        <mxCell id="648J-5t0cohJ9zHrmOAv-46" value="Internal App" style="text;whiteSpace=wrap;html=1;" vertex="1" parent="WIyWlLk6GJQsqaUBKTNV-1">
          <mxGeometry x="443" y="909" width="100" height="40" as="geometry" />
        </mxCell>
        <mxCell id="648J-5t0cohJ9zHrmOAv-47" value="Read the Sum value calculated above" style="rounded=0;whiteSpace=wrap;html=1;" vertex="1" parent="WIyWlLk6GJQsqaUBKTNV-1">
          <mxGeometry x="408" y="974" width="120" height="60" as="geometry" />
        </mxCell>
        <mxCell id="648J-5t0cohJ9zHrmOAv-48" value="" style="endArrow=none;dashed=1;html=1;rounded=0;" edge="1" parent="WIyWlLk6GJQsqaUBKTNV-1">
          <mxGeometry width="50" height="50" relative="1" as="geometry">
            <mxPoint x="408" y="1038" as="sourcePoint" />
            <mxPoint x="528" y="1038" as="targetPoint" />
            <Array as="points">
              <mxPoint x="478" y="1038" />
              <mxPoint x="528" y="1038" />
            </Array>
          </mxGeometry>
        </mxCell>
        <mxCell id="648J-5t0cohJ9zHrmOAv-49" value="" style="endArrow=none;dashed=1;html=1;rounded=0;" edge="1" parent="WIyWlLk6GJQsqaUBKTNV-1">
          <mxGeometry width="50" height="50" relative="1" as="geometry">
            <mxPoint x="418" y="1055" as="sourcePoint" />
            <mxPoint x="528" y="1055" as="targetPoint" />
            <Array as="points">
              <mxPoint x="408" y="1055" />
              <mxPoint x="428" y="1055" />
              <mxPoint x="488" y="1055" />
              <mxPoint x="528" y="1055" />
            </Array>
          </mxGeometry>
        </mxCell>
        <mxCell id="648J-5t0cohJ9zHrmOAv-50" value="" style="endArrow=none;dashed=1;html=1;dashPattern=1 3;strokeWidth=2;rounded=0;" edge="1" parent="WIyWlLk6GJQsqaUBKTNV-1">
          <mxGeometry width="50" height="50" relative="1" as="geometry">
            <mxPoint x="528" y="1056" as="sourcePoint" />
            <mxPoint x="528" y="1036" as="targetPoint" />
          </mxGeometry>
        </mxCell>
        <mxCell id="648J-5t0cohJ9zHrmOAv-51" value="" style="endArrow=none;dashed=1;html=1;dashPattern=1 3;strokeWidth=2;rounded=0;" edge="1" parent="WIyWlLk6GJQsqaUBKTNV-1">
          <mxGeometry width="50" height="50" relative="1" as="geometry">
            <mxPoint x="408" y="1056" as="sourcePoint" />
            <mxPoint x="408" y="1036" as="targetPoint" />
          </mxGeometry>
        </mxCell>
        <mxCell id="648J-5t0cohJ9zHrmOAv-52" value="" style="rounded=0;html=1;jettySize=auto;orthogonalLoop=1;fontSize=11;endArrow=block;endFill=0;endSize=8;strokeWidth=1;shadow=0;labelBackgroundColor=none;edgeStyle=orthogonalEdgeStyle;" edge="1" parent="WIyWlLk6GJQsqaUBKTNV-1">
          <mxGeometry relative="1" as="geometry">
            <mxPoint x="471" y="942" as="sourcePoint" />
            <mxPoint x="471" y="973" as="targetPoint" />
            <Array as="points">
              <mxPoint x="471" y="932" />
              <mxPoint x="471" y="932" />
            </Array>
          </mxGeometry>
        </mxCell>
        <mxCell id="648J-5t0cohJ9zHrmOAv-53" value="Internal App" style="text;whiteSpace=wrap;html=1;" vertex="1" parent="WIyWlLk6GJQsqaUBKTNV-1">
          <mxGeometry x="438" y="1033" width="100" height="40" as="geometry" />
        </mxCell>
        <mxCell id="648J-5t0cohJ9zHrmOAv-60" value="" style="endArrow=classic;html=1;rounded=0;" edge="1" parent="WIyWlLk6GJQsqaUBKTNV-1">
          <mxGeometry width="50" height="50" relative="1" as="geometry">
            <mxPoint x="590" y="1140" as="sourcePoint" />
            <mxPoint x="720" y="125" as="targetPoint" />
            <Array as="points">
              <mxPoint x="590" y="95" />
              <mxPoint x="720" y="95" />
            </Array>
          </mxGeometry>
        </mxCell>
        <mxCell id="648J-5t0cohJ9zHrmOAv-62" value="" style="endArrow=none;html=1;rounded=0;" edge="1" parent="WIyWlLk6GJQsqaUBKTNV-1">
          <mxGeometry width="50" height="50" relative="1" as="geometry">
            <mxPoint x="480" y="1056" as="sourcePoint" />
            <mxPoint x="590" y="1141" as="targetPoint" />
            <Array as="points">
              <mxPoint x="480" y="1141" />
            </Array>
          </mxGeometry>
        </mxCell>
        <mxCell id="648J-5t0cohJ9zHrmOAv-64" value="" style="rounded=0;html=1;jettySize=auto;orthogonalLoop=1;fontSize=11;endArrow=block;endFill=0;endSize=8;strokeWidth=1;shadow=0;labelBackgroundColor=none;edgeStyle=orthogonalEdgeStyle;" edge="1" parent="WIyWlLk6GJQsqaUBKTNV-1">
          <mxGeometry relative="1" as="geometry">
            <mxPoint x="471" y="827" as="sourcePoint" />
            <mxPoint x="471" y="850" as="targetPoint" />
            <Array as="points">
              <mxPoint x="471" y="817" />
              <mxPoint x="471" y="817" />
            </Array>
          </mxGeometry>
        </mxCell>
        <mxCell id="648J-5t0cohJ9zHrmOAv-65" value="" style="rounded=0;html=1;jettySize=auto;orthogonalLoop=1;fontSize=11;endArrow=block;endFill=0;endSize=8;strokeWidth=1;shadow=0;labelBackgroundColor=none;edgeStyle=orthogonalEdgeStyle;" edge="1" parent="WIyWlLk6GJQsqaUBKTNV-1">
          <mxGeometry relative="1" as="geometry">
            <mxPoint x="471" y="460" as="sourcePoint" />
            <mxPoint x="471" y="491" as="targetPoint" />
            <Array as="points">
              <mxPoint x="471" y="450" />
              <mxPoint x="471" y="450" />
            </Array>
          </mxGeometry>
        </mxCell>
      </root>
    </mxGraphModel>
  </diagram>
</mxfile>
